<?xml version="1.0" standalone="no"?>
<!DOCTYPE svg PUBLIC "-//W3C//DTD SVG 20010904//EN"
 "http://www.w3.org/TR/2001/REC-SVG-20010904/DTD/svg10.dtd">
<svg version="1.0" xmlns="http://www.w3.org/2000/svg"
 width="700.000000pt" height="700.000000pt" viewBox="0 0 700.000000 700.000000"
 preserveAspectRatio="xMidYMid meet">
<metadata>
Created by potrace 1.11, written by Peter Selinger 2001-2013
</metadata>
<g transform="translate(0.000000,700.000000) scale(0.100000,-0.100000)"
fill="#000000" stroke="none">
<path d="M1910 6322 l-55 -4 -380 -660 c-209 -363 -392 -681 -406 -707 -15
-25 -92 -158 -171 -296 -243 -420 -338 -585 -413 -715 -40 -69 -116 -200 -169
-293 l-97 -167 82 -143 c130 -226 517 -894 569 -982 26 -44 58 -100 72 -125
14 -25 89 -154 166 -288 78 -134 142 -248 142 -253 0 -5 5 -9 10 -9 6 0 10 -4
10 -10 0 -5 18 -39 40 -75 22 -36 40 -67 40 -70 0 -2 26 -48 58 -102 49 -82
241 -413 310 -533 11 -19 47 -82 80 -140 l61 -105 1640 0 c902 1 1642 3 1644
5 3 4 493 849 546 943 10 17 48 83 85 146 36 62 66 115 66 117 0 2 15 27 33
56 19 29 37 60 41 68 4 8 12 24 19 35 7 11 32 54 55 95 24 41 52 91 64 110 26
46 328 566 403 695 32 55 71 125 88 155 16 30 36 62 43 71 8 8 14 19 14 22 0
4 11 24 23 45 13 20 35 57 49 82 14 25 44 77 67 117 l42 72 -117 203 c-64 112
-125 216 -135 233 -10 16 -28 48 -40 70 -12 22 -59 104 -105 182 -46 78 -84
144 -84 147 0 3 -15 29 -33 58 -19 29 -47 78 -64 108 -17 30 -88 154 -158 275
-70 121 -139 240 -152 265 -14 25 -38 65 -53 90 -26 43 -150 256 -202 350 -14
25 -58 101 -98 170 -40 69 -78 134 -84 145 -6 11 -47 82 -91 158 -100 173 -89
154 -159 276 -33 56 -66 105 -73 108 -15 6 -3130 10 -3223 5z"/>
</g>
</svg>
