<?xml version="1.0" encoding="utf-8"?>
<!-- Generator: Adobe Illustrator 24.0.1, SVG Export Plug-In . SVG Version: 6.00 Build 0)  -->
<svg version="1.1" xmlns="http://www.w3.org/2000/svg" xmlns:xlink="http://www.w3.org/1999/xlink" x="0px" y="0px"
	 viewBox="0 0 64 64" style="enable-background:new 0 0 64 64;" xml:space="preserve">
<style type="text/css">
	.st0{fill:#1E2E3E;}
	.st1{fill:#FFFFFF;}
</style>
<g id="hexa">
	<polygon class="st0" points="47,58.1 17,58.1 2,32.2 17,6.2 47,6.2 62,32.2 	"/>
</g>
<g id="verdinha">
</g>
<g id="Camada_5">
</g>
<g id="Camada_1">
	<path class="st1" d="M46.5,27.9c-0.1,0-0.3,0-0.4,0v-3.8c0-0.4-0.3-0.7-0.7-0.7H18.6c-0.4,0-0.7,0.3-0.7,0.7v3.8
		c-0.1,0-0.3,0-0.4,0c-1.6,0-3,1.3-3,2.9c0,0,0,0,0,0v2.3c0,1.6,1.3,2.9,2.9,2.9c0.1,0,0.3,0,0.4,0v2.7c0,4.7,3.8,8.5,8.5,8.5h11.2
		c4.7,0,8.5-3.8,8.5-8.5V36c0.1,0,0.3,0,0.4,0c1.6,0,3-1.3,3-2.9c0,0,0,0,0,0v-2.2C49.5,29.2,48.2,27.9,46.5,27.9
		C46.6,27.9,46.5,27.9,46.5,27.9z M17.9,33.4c0,0.4,0,0.8-0.1,1.2c-0.1,0-0.2,0.1-0.3,0.1c-0.8,0-1.5-0.7-1.5-1.5l0,0v-2.2
		c0-0.8,0.7-1.5,1.5-1.5c0.1,0,0.2,0,0.3,0.1c0.1,0.4,0.2,0.8,0.1,1.2V33.4L17.9,33.4z M37.6,45.8H26.4c-3.9,0-7.1-3.2-7.1-7.1V24.8
		h25.4v13.8C44.7,42.6,41.5,45.8,37.6,45.8L37.6,45.8z M46.5,34.6c-0.2,0-0.3,0-0.3-0.1c-0.1-0.4-0.2-0.8-0.1-1.2v-2.8
		c0-0.4,0-0.8,0.1-1.2c0,0,0.1-0.1,0.3-0.1c0.8,0,1.5,0.7,1.5,1.5c0,0,0,0,0,0v2.3C48,33.9,47.3,34.6,46.5,34.6L46.5,34.6z"/>
	<path class="st1" d="M31.4,19.1c-0.3,0.3-0.2,0.8,0.2,1.1c0.1,0.1,0.3,0.2,0.5,0.2c0.2,0,0.5-0.1,0.6-0.3c1.3-1.8,1.3-4.1,0-5.9
		c-0.9-1.2-0.9-2.8,0-4c0.3-0.3,0.2-0.8-0.2-1.1c-0.3-0.3-0.8-0.2-1.1,0.2c-1.3,1.8-1.3,4.1,0,5.9C32.2,16.3,32.2,17.9,31.4,19.1z"
		/>
	<path class="st1" d="M39.5,20.3c-0.3,0.3-0.2,0.8,0.2,1.1c0.1,0.1,0.3,0.2,0.5,0.2c0.2,0,0.5-0.1,0.6-0.3c1.3-1.8,1.3-4.1,0-5.9
		c-0.9-1.2-0.9-2.8,0-4c0.3-0.3,0.2-0.8-0.2-1.1c-0.3-0.3-0.8-0.2-1.1,0.2c-1.3,1.8-1.3,4.1,0,5.9C40.4,17.4,40.4,19.1,39.5,20.3z"
		/>
	<path class="st1" d="M23.1,20.7c-0.3,0.3-0.2,0.8,0.1,1.1c0.1,0.1,0.3,0.2,0.5,0.2c0.2,0,0.5-0.1,0.6-0.3c1.3-1.8,1.3-4.1,0-5.9
		c-0.9-1.2-0.9-2.8,0-4c0.3-0.3,0.2-0.8-0.2-1.1c-0.3-0.3-0.8-0.2-1.1,0.2c-1.3,1.8-1.3,4.1,0,5.9C23.9,17.9,23.9,19.5,23.1,20.7z"
		/>
</g>
<g id="Camada_4">
	<path class="st1" d="M29.1,38.2l-0.4,0.4c-0.1,0.1-0.1,0.1-0.2,0.1c-0.1,0-0.2,0-0.2-0.1l-4.1-3.9c-0.1-0.1-0.1-0.1-0.1-0.2
		c0-0.1,0-0.2,0.1-0.2l4-3.9c0.1-0.1,0.1-0.1,0.2-0.1c0.1,0,0.2,0,0.2,0.1L29,31c0.1,0.1,0.1,0.1,0.1,0.2c0,0.1,0,0.2-0.1,0.2
		l-3.4,3.2l3.4,3.2c0.1,0.1,0.1,0.1,0.1,0.2C29.1,38,29.1,38.2,29.1,38.2z M34.1,29.5l-3.2,10.6c0,0.1-0.1,0.1-0.2,0.2
		c-0.1,0-0.2,0.1-0.2,0L30,40.1c-0.1,0-0.2-0.1-0.2-0.2c0-0.1-0.1-0.2,0-0.2L33,29.1c0-0.1,0.1-0.1,0.2-0.2c0.1-0.1,0.2-0.1,0.2,0
		l0.5,0.2c0.1,0,0.2,0.1,0.2,0.2C34.1,29.3,34.1,29.4,34.1,29.5z M39.7,34.8l-4,3.9c-0.1,0.1-0.1,0.1-0.2,0.1s-0.2,0-0.2-0.1
		l-0.4-0.4c-0.1-0.1-0.1-0.1-0.1-0.2s0-0.2,0.1-0.2l3.4-3.2l-3.4-3.2c-0.1-0.1-0.1-0.1-0.1-0.2c0-0.1,0-0.2,0.1-0.2l0.4-0.4
		c0.1-0.1,0.1-0.1,0.2-0.1s0.2,0,0.2,0.1l4,3.9C39.8,34.7,39.8,34.7,39.7,34.8C39.8,34.7,39.8,34.8,39.7,34.8z"/>
</g>
</svg>
